<mxfile host="app.diagrams.net" modified="2021-10-03T00:48:30.600Z" agent="5.0 (Windows NT 10.0; Win64; x64) AppleWebKit/537.36 (KHTML, like Gecko) Chrome/94.0.4606.61 Safari/537.36" etag="ERPol2LGVhOgHN1FsFgZ" version="15.4.1" type="github">
  <diagram id="lNTThxH8GvDrvc97x_04" name="Page-1">
    <mxGraphModel dx="2207" dy="575" grid="1" gridSize="10" guides="1" tooltips="1" connect="1" arrows="1" fold="1" page="1" pageScale="1" pageWidth="1169" pageHeight="827" math="0" shadow="0">
      <root>
        <mxCell id="OBLhhPcnFSXKWtFT23k--0" />
        <mxCell id="OBLhhPcnFSXKWtFT23k--1" parent="OBLhhPcnFSXKWtFT23k--0" />
        <mxCell id="OBLhhPcnFSXKWtFT23k--2" value="" style="edgeStyle=none;rounded=0;orthogonalLoop=1;jettySize=auto;html=1;endArrow=none;endFill=0;shape=link;exitX=0.5;exitY=1;exitDx=0;exitDy=0;width=-4;entryX=0.5;entryY=0;entryDx=0;entryDy=0;" parent="OBLhhPcnFSXKWtFT23k--1" source="OBLhhPcnFSXKWtFT23k--3" target="OBLhhPcnFSXKWtFT23k--22" edge="1">
          <mxGeometry relative="1" as="geometry">
            <mxPoint x="-385" y="150" as="targetPoint" />
          </mxGeometry>
        </mxCell>
        <mxCell id="OBLhhPcnFSXKWtFT23k--3" value="USER" style="rounded=0;whiteSpace=wrap;html=1;" parent="OBLhhPcnFSXKWtFT23k--1" vertex="1">
          <mxGeometry x="-405" y="90" width="40" height="20" as="geometry" />
        </mxCell>
        <mxCell id="OBLhhPcnFSXKWtFT23k--4" style="edgeStyle=none;rounded=0;orthogonalLoop=1;jettySize=auto;html=1;exitX=1;exitY=0.5;exitDx=0;exitDy=0;entryX=0;entryY=0.5;entryDx=0;entryDy=0;endArrow=none;endFill=0;" parent="OBLhhPcnFSXKWtFT23k--1" source="OBLhhPcnFSXKWtFT23k--6" target="OBLhhPcnFSXKWtFT23k--8" edge="1">
          <mxGeometry relative="1" as="geometry" />
        </mxCell>
        <mxCell id="OBLhhPcnFSXKWtFT23k--5" style="edgeStyle=none;rounded=0;orthogonalLoop=1;jettySize=auto;html=1;exitX=1;exitY=0.5;exitDx=0;exitDy=0;entryX=0;entryY=0.5;entryDx=0;entryDy=0;endArrow=none;endFill=0;" parent="OBLhhPcnFSXKWtFT23k--1" source="OBLhhPcnFSXKWtFT23k--6" target="OBLhhPcnFSXKWtFT23k--7" edge="1">
          <mxGeometry relative="1" as="geometry" />
        </mxCell>
        <mxCell id="OBLhhPcnFSXKWtFT23k--6" value="Name" style="ellipse;whiteSpace=wrap;html=1;" parent="OBLhhPcnFSXKWtFT23k--1" vertex="1">
          <mxGeometry x="-325" y="20" width="70" height="45" as="geometry" />
        </mxCell>
        <mxCell id="OBLhhPcnFSXKWtFT23k--7" value="LastName" style="ellipse;whiteSpace=wrap;html=1;" parent="OBLhhPcnFSXKWtFT23k--1" vertex="1">
          <mxGeometry x="-235" y="50" width="80" height="40" as="geometry" />
        </mxCell>
        <mxCell id="OBLhhPcnFSXKWtFT23k--8" value="FirstName" style="ellipse;whiteSpace=wrap;html=1;" parent="OBLhhPcnFSXKWtFT23k--1" vertex="1">
          <mxGeometry x="-235" width="80" height="40" as="geometry" />
        </mxCell>
        <mxCell id="OBLhhPcnFSXKWtFT23k--9" value="1" style="edgeStyle=none;rounded=0;orthogonalLoop=1;jettySize=auto;html=1;endArrow=none;endFill=0;" parent="OBLhhPcnFSXKWtFT23k--1" source="OBLhhPcnFSXKWtFT23k--10" target="OBLhhPcnFSXKWtFT23k--40" edge="1">
          <mxGeometry x="0.3722" y="2" relative="1" as="geometry">
            <mxPoint x="-839" y="230.00000000000023" as="sourcePoint" />
            <mxPoint as="offset" />
          </mxGeometry>
        </mxCell>
        <mxCell id="OBLhhPcnFSXKWtFT23k--10" value="INVENTORY_CLERK" style="rounded=0;whiteSpace=wrap;html=1;" parent="OBLhhPcnFSXKWtFT23k--1" vertex="1">
          <mxGeometry x="-885.55" y="179.74" width="120" height="30" as="geometry" />
        </mxCell>
        <mxCell id="OBLhhPcnFSXKWtFT23k--11" style="edgeStyle=none;rounded=0;orthogonalLoop=1;jettySize=auto;html=1;exitX=0.5;exitY=1;exitDx=0;exitDy=0;entryX=0.5;entryY=0;entryDx=0;entryDy=0;endArrow=none;endFill=0;" parent="OBLhhPcnFSXKWtFT23k--1" source="OBLhhPcnFSXKWtFT23k--12" target="OBLhhPcnFSXKWtFT23k--46" edge="1">
          <mxGeometry relative="1" as="geometry" />
        </mxCell>
        <mxCell id="OBLhhPcnFSXKWtFT23k--12" value="SERVICE_WRITER" style="rounded=0;whiteSpace=wrap;html=1;" parent="OBLhhPcnFSXKWtFT23k--1" vertex="1">
          <mxGeometry x="-177.5" y="220.26" width="120" height="30" as="geometry" />
        </mxCell>
        <mxCell id="OBLhhPcnFSXKWtFT23k--13" value="" style="edgeStyle=none;rounded=0;orthogonalLoop=1;jettySize=auto;html=1;endArrow=none;endFill=0;" parent="OBLhhPcnFSXKWtFT23k--1" source="OBLhhPcnFSXKWtFT23k--14" target="OBLhhPcnFSXKWtFT23k--43" edge="1">
          <mxGeometry relative="1" as="geometry" />
        </mxCell>
        <mxCell id="-MXsMZ3HFVtyenDkPSlB-4" value="1" style="edgeLabel;html=1;align=center;verticalAlign=middle;resizable=0;points=[];" vertex="1" connectable="0" parent="OBLhhPcnFSXKWtFT23k--13">
          <mxGeometry x="0.7397" y="-1" relative="1" as="geometry">
            <mxPoint as="offset" />
          </mxGeometry>
        </mxCell>
        <mxCell id="OBLhhPcnFSXKWtFT23k--14" value="SALES_PEOPLE" style="rounded=0;whiteSpace=wrap;html=1;" parent="OBLhhPcnFSXKWtFT23k--1" vertex="1">
          <mxGeometry x="-445" y="209.73999999999998" width="120" height="30" as="geometry" />
        </mxCell>
        <mxCell id="EvW4grgbc_aKSZ-Zlbsq-6" value="1" style="edgeStyle=none;rounded=0;orthogonalLoop=1;jettySize=auto;html=1;exitX=0;exitY=0.5;exitDx=0;exitDy=0;fontSize=12;endArrow=none;endFill=0;strokeWidth=1;" parent="OBLhhPcnFSXKWtFT23k--1" source="OBLhhPcnFSXKWtFT23k--15" target="OBLhhPcnFSXKWtFT23k--40" edge="1">
          <mxGeometry x="0.8327" y="-2" relative="1" as="geometry">
            <mxPoint as="offset" />
          </mxGeometry>
        </mxCell>
        <mxCell id="OBLhhPcnFSXKWtFT23k--15" value="OWNER" style="rounded=0;whiteSpace=wrap;html=1;" parent="OBLhhPcnFSXKWtFT23k--1" vertex="1">
          <mxGeometry x="-586.25" y="209.73999999999998" width="70" height="30" as="geometry" />
        </mxCell>
        <mxCell id="OBLhhPcnFSXKWtFT23k--16" value="MANAGER" style="rounded=0;whiteSpace=wrap;html=1;" parent="OBLhhPcnFSXKWtFT23k--1" vertex="1">
          <mxGeometry x="-286.5" y="220.26" width="70" height="30" as="geometry" />
        </mxCell>
        <mxCell id="OBLhhPcnFSXKWtFT23k--17" style="edgeStyle=none;rounded=0;orthogonalLoop=1;jettySize=auto;html=1;exitX=1;exitY=1;exitDx=0;exitDy=0;endArrow=none;endFill=0;entryX=0.5;entryY=0;entryDx=0;entryDy=0;" parent="OBLhhPcnFSXKWtFT23k--1" source="OBLhhPcnFSXKWtFT23k--18" target="OBLhhPcnFSXKWtFT23k--3" edge="1">
          <mxGeometry relative="1" as="geometry">
            <mxPoint x="-575" y="-40" as="targetPoint" />
          </mxGeometry>
        </mxCell>
        <mxCell id="OBLhhPcnFSXKWtFT23k--18" value="&lt;u&gt;UserName&lt;/u&gt;" style="ellipse;whiteSpace=wrap;html=1;" parent="OBLhhPcnFSXKWtFT23k--1" vertex="1">
          <mxGeometry x="-525" y="20" width="80" height="50" as="geometry" />
        </mxCell>
        <mxCell id="OBLhhPcnFSXKWtFT23k--19" value="" style="endArrow=none;html=1;rounded=0;exitX=0.5;exitY=0;exitDx=0;exitDy=0;entryX=0;entryY=0.5;entryDx=0;entryDy=0;" parent="OBLhhPcnFSXKWtFT23k--1" source="OBLhhPcnFSXKWtFT23k--3" target="OBLhhPcnFSXKWtFT23k--6" edge="1">
          <mxGeometry relative="1" as="geometry">
            <mxPoint x="-215" y="100" as="sourcePoint" />
            <mxPoint x="-55" y="100" as="targetPoint" />
          </mxGeometry>
        </mxCell>
        <mxCell id="OBLhhPcnFSXKWtFT23k--20" style="edgeStyle=none;rounded=0;orthogonalLoop=1;jettySize=auto;html=1;exitX=0.5;exitY=1;exitDx=0;exitDy=0;entryX=0.5;entryY=0;entryDx=0;entryDy=0;endArrow=none;endFill=0;" parent="OBLhhPcnFSXKWtFT23k--1" source="OBLhhPcnFSXKWtFT23k--21" target="OBLhhPcnFSXKWtFT23k--3" edge="1">
          <mxGeometry relative="1" as="geometry" />
        </mxCell>
        <mxCell id="OBLhhPcnFSXKWtFT23k--21" value="&lt;div&gt;Password&lt;/div&gt;" style="ellipse;whiteSpace=wrap;html=1;" parent="OBLhhPcnFSXKWtFT23k--1" vertex="1">
          <mxGeometry x="-425" y="20" width="80" height="50" as="geometry" />
        </mxCell>
        <mxCell id="OBLhhPcnFSXKWtFT23k--22" value="d" style="ellipse;whiteSpace=wrap;html=1;" parent="OBLhhPcnFSXKWtFT23k--1" vertex="1">
          <mxGeometry x="-400" y="120" width="30" height="30" as="geometry" />
        </mxCell>
        <mxCell id="OBLhhPcnFSXKWtFT23k--23" value="" style="endArrow=none;html=1;rounded=0;exitX=1;exitY=0.5;exitDx=0;exitDy=0;entryX=0.5;entryY=1;entryDx=0;entryDy=0;exitPerimeter=0;" parent="OBLhhPcnFSXKWtFT23k--1" source="OBLhhPcnFSXKWtFT23k--29" target="OBLhhPcnFSXKWtFT23k--22" edge="1">
          <mxGeometry relative="1" as="geometry">
            <mxPoint x="-225" y="120" as="sourcePoint" />
            <mxPoint x="-65" y="120" as="targetPoint" />
          </mxGeometry>
        </mxCell>
        <mxCell id="OBLhhPcnFSXKWtFT23k--24" value="" style="endArrow=none;html=1;rounded=0;entryX=1;entryY=0.5;entryDx=0;entryDy=0;exitX=0.5;exitY=1;exitDx=0;exitDy=0;entryPerimeter=0;" parent="OBLhhPcnFSXKWtFT23k--1" source="OBLhhPcnFSXKWtFT23k--22" target="OBLhhPcnFSXKWtFT23k--31" edge="1">
          <mxGeometry relative="1" as="geometry">
            <mxPoint x="-465" y="80" as="sourcePoint" />
            <mxPoint x="-305" y="80" as="targetPoint" />
          </mxGeometry>
        </mxCell>
        <mxCell id="OBLhhPcnFSXKWtFT23k--25" value="" style="endArrow=none;html=1;rounded=0;exitX=0.5;exitY=1;exitDx=0;exitDy=0;entryX=1;entryY=0.5;entryDx=0;entryDy=0;entryPerimeter=0;" parent="OBLhhPcnFSXKWtFT23k--1" source="OBLhhPcnFSXKWtFT23k--22" target="OBLhhPcnFSXKWtFT23k--33" edge="1">
          <mxGeometry relative="1" as="geometry">
            <mxPoint x="-135" y="140" as="sourcePoint" />
            <mxPoint x="25" y="140" as="targetPoint" />
          </mxGeometry>
        </mxCell>
        <mxCell id="OBLhhPcnFSXKWtFT23k--26" value="" style="endArrow=none;html=1;rounded=0;exitX=0.5;exitY=1;exitDx=0;exitDy=0;entryX=1;entryY=0.5;entryDx=0;entryDy=0;entryPerimeter=0;" parent="OBLhhPcnFSXKWtFT23k--1" source="OBLhhPcnFSXKWtFT23k--22" target="OBLhhPcnFSXKWtFT23k--35" edge="1">
          <mxGeometry relative="1" as="geometry">
            <mxPoint x="-265" y="134.5" as="sourcePoint" />
            <mxPoint x="-105" y="134.5" as="targetPoint" />
          </mxGeometry>
        </mxCell>
        <mxCell id="OBLhhPcnFSXKWtFT23k--27" value="" style="endArrow=none;html=1;rounded=0;exitX=0.5;exitY=1;exitDx=0;exitDy=0;entryX=1;entryY=0.5;entryDx=0;entryDy=0;entryPerimeter=0;" parent="OBLhhPcnFSXKWtFT23k--1" source="OBLhhPcnFSXKWtFT23k--22" target="OBLhhPcnFSXKWtFT23k--37" edge="1">
          <mxGeometry relative="1" as="geometry">
            <mxPoint x="-175" y="70" as="sourcePoint" />
            <mxPoint x="-15" y="70" as="targetPoint" />
          </mxGeometry>
        </mxCell>
        <mxCell id="OBLhhPcnFSXKWtFT23k--28" style="edgeStyle=none;rounded=0;orthogonalLoop=1;jettySize=auto;html=1;exitX=1;exitY=0.5;exitDx=0;exitDy=0;exitPerimeter=0;entryX=0.5;entryY=0;entryDx=0;entryDy=0;endArrow=none;endFill=0;" parent="OBLhhPcnFSXKWtFT23k--1" source="OBLhhPcnFSXKWtFT23k--29" target="OBLhhPcnFSXKWtFT23k--15" edge="1">
          <mxGeometry relative="1" as="geometry" />
        </mxCell>
        <mxCell id="OBLhhPcnFSXKWtFT23k--29" value="" style="shape=requiredInterface;html=1;verticalLabelPosition=bottom;sketch=0;rotation=-210;" parent="OBLhhPcnFSXKWtFT23k--1" vertex="1">
          <mxGeometry x="-470" y="181.25" width="14" height="10" as="geometry" />
        </mxCell>
        <mxCell id="OBLhhPcnFSXKWtFT23k--30" style="edgeStyle=none;rounded=0;orthogonalLoop=1;jettySize=auto;html=1;exitX=1;exitY=0.5;exitDx=0;exitDy=0;exitPerimeter=0;entryX=0.5;entryY=0;entryDx=0;entryDy=0;endArrow=none;endFill=0;" parent="OBLhhPcnFSXKWtFT23k--1" source="OBLhhPcnFSXKWtFT23k--31" target="OBLhhPcnFSXKWtFT23k--14" edge="1">
          <mxGeometry relative="1" as="geometry" />
        </mxCell>
        <mxCell id="OBLhhPcnFSXKWtFT23k--31" value="" style="shape=requiredInterface;html=1;verticalLabelPosition=bottom;sketch=0;rotation=90;" parent="OBLhhPcnFSXKWtFT23k--1" vertex="1">
          <mxGeometry x="-391" y="180" width="12" height="12.5" as="geometry" />
        </mxCell>
        <mxCell id="OBLhhPcnFSXKWtFT23k--32" style="edgeStyle=none;rounded=0;orthogonalLoop=1;jettySize=auto;html=1;exitX=1;exitY=0.5;exitDx=0;exitDy=0;exitPerimeter=0;entryX=0.5;entryY=0;entryDx=0;entryDy=0;endArrow=none;endFill=0;" parent="OBLhhPcnFSXKWtFT23k--1" source="OBLhhPcnFSXKWtFT23k--33" target="OBLhhPcnFSXKWtFT23k--16" edge="1">
          <mxGeometry relative="1" as="geometry">
            <mxPoint x="-318.20444504226543" y="195.00291427061507" as="sourcePoint" />
          </mxGeometry>
        </mxCell>
        <mxCell id="OBLhhPcnFSXKWtFT23k--33" value="" style="shape=requiredInterface;html=1;verticalLabelPosition=bottom;sketch=0;rotation=30;" parent="OBLhhPcnFSXKWtFT23k--1" vertex="1">
          <mxGeometry x="-325" y="181.24999999999994" width="12" height="10" as="geometry" />
        </mxCell>
        <mxCell id="OBLhhPcnFSXKWtFT23k--34" style="edgeStyle=none;rounded=0;orthogonalLoop=1;jettySize=auto;html=1;exitX=1;exitY=0.5;exitDx=0;exitDy=0;exitPerimeter=0;entryX=0.5;entryY=0;entryDx=0;entryDy=0;endArrow=none;endFill=0;" parent="OBLhhPcnFSXKWtFT23k--1" source="OBLhhPcnFSXKWtFT23k--35" target="OBLhhPcnFSXKWtFT23k--12" edge="1">
          <mxGeometry relative="1" as="geometry" />
        </mxCell>
        <mxCell id="OBLhhPcnFSXKWtFT23k--35" value="" style="shape=requiredInterface;html=1;verticalLabelPosition=bottom;sketch=0;rotation=15;" parent="OBLhhPcnFSXKWtFT23k--1" vertex="1">
          <mxGeometry x="-235" y="181.25" width="12" height="10" as="geometry" />
        </mxCell>
        <mxCell id="OBLhhPcnFSXKWtFT23k--36" style="edgeStyle=none;rounded=0;orthogonalLoop=1;jettySize=auto;html=1;exitX=1;exitY=0.5;exitDx=0;exitDy=0;exitPerimeter=0;endArrow=none;endFill=0;" parent="OBLhhPcnFSXKWtFT23k--1" source="OBLhhPcnFSXKWtFT23k--37" target="OBLhhPcnFSXKWtFT23k--10" edge="1">
          <mxGeometry relative="1" as="geometry" />
        </mxCell>
        <mxCell id="OBLhhPcnFSXKWtFT23k--37" value="" style="shape=requiredInterface;html=1;verticalLabelPosition=bottom;sketch=0;rotation=-180;" parent="OBLhhPcnFSXKWtFT23k--1" vertex="1">
          <mxGeometry x="-726.5" y="150" width="12" height="10" as="geometry" />
        </mxCell>
        <mxCell id="OBLhhPcnFSXKWtFT23k--38" value="" style="edgeStyle=none;rounded=0;orthogonalLoop=1;jettySize=auto;html=1;endArrow=none;endFill=0;entryX=1;entryY=0.5;entryDx=0;entryDy=0;" parent="OBLhhPcnFSXKWtFT23k--1" source="OBLhhPcnFSXKWtFT23k--40" target="OBLhhPcnFSXKWtFT23k--142" edge="1">
          <mxGeometry relative="1" as="geometry">
            <mxPoint x="-1060" y="249.74" as="targetPoint" />
          </mxGeometry>
        </mxCell>
        <mxCell id="EvW4grgbc_aKSZ-Zlbsq-11" value="N" style="edgeStyle=none;rounded=0;orthogonalLoop=1;jettySize=auto;html=1;exitX=1;exitY=1;exitDx=0;exitDy=0;fontSize=12;endArrow=none;endFill=0;strokeWidth=1;" parent="OBLhhPcnFSXKWtFT23k--1" source="OBLhhPcnFSXKWtFT23k--40" target="OBLhhPcnFSXKWtFT23k--48" edge="1">
          <mxGeometry x="-0.8645" y="2" relative="1" as="geometry">
            <mxPoint as="offset" />
          </mxGeometry>
        </mxCell>
        <mxCell id="OBLhhPcnFSXKWtFT23k--40" value="&lt;div&gt;Add&lt;/div&gt;&lt;div&gt;Vehicle&lt;/div&gt;" style="rhombus;whiteSpace=wrap;html=1;rounded=0;" parent="OBLhhPcnFSXKWtFT23k--1" vertex="1">
          <mxGeometry x="-960" y="229.74" width="80" height="80" as="geometry" />
        </mxCell>
        <mxCell id="OBLhhPcnFSXKWtFT23k--43" value="&lt;div&gt;Issue&lt;/div&gt;&lt;div&gt;Sales&lt;/div&gt;" style="rhombus;whiteSpace=wrap;html=1;rounded=0;" parent="OBLhhPcnFSXKWtFT23k--1" vertex="1">
          <mxGeometry x="-596.25" y="270" width="80" height="80" as="geometry" />
        </mxCell>
        <mxCell id="OBLhhPcnFSXKWtFT23k--46" value="&lt;div&gt;Issue &lt;br&gt;&lt;/div&gt;&lt;div&gt;Repairs&lt;/div&gt;" style="rhombus;whiteSpace=wrap;html=1;" parent="OBLhhPcnFSXKWtFT23k--1" vertex="1">
          <mxGeometry x="-157.5" y="270" width="80" height="80" as="geometry" />
        </mxCell>
        <mxCell id="OBLhhPcnFSXKWtFT23k--47" value="" style="edgeStyle=none;rounded=0;orthogonalLoop=1;jettySize=auto;html=1;shape=link;exitX=0;exitY=0.5;exitDx=0;exitDy=0;entryX=1;entryY=0.5;entryDx=0;entryDy=0;" parent="OBLhhPcnFSXKWtFT23k--1" source="OBLhhPcnFSXKWtFT23k--48" target="OBLhhPcnFSXKWtFT23k--61" edge="1">
          <mxGeometry relative="1" as="geometry">
            <mxPoint x="-784" y="556" as="targetPoint" />
          </mxGeometry>
        </mxCell>
        <mxCell id="OBLhhPcnFSXKWtFT23k--48" value="VEHICLE" style="rounded=0;whiteSpace=wrap;html=1;" parent="OBLhhPcnFSXKWtFT23k--1" vertex="1">
          <mxGeometry x="-814" y="601" width="65" height="20" as="geometry" />
        </mxCell>
        <mxCell id="OBLhhPcnFSXKWtFT23k--49" value="&lt;div&gt;&lt;u&gt;VIN&lt;/u&gt;&lt;/div&gt;" style="ellipse;whiteSpace=wrap;html=1;" parent="OBLhhPcnFSXKWtFT23k--1" vertex="1">
          <mxGeometry x="-719" y="483.5" width="50" height="40" as="geometry" />
        </mxCell>
        <mxCell id="OBLhhPcnFSXKWtFT23k--50" value="&lt;div&gt;ModelNumber&lt;/div&gt;" style="ellipse;whiteSpace=wrap;html=1;" parent="OBLhhPcnFSXKWtFT23k--1" vertex="1">
          <mxGeometry x="-719" y="532.5" width="100" height="30" as="geometry" />
        </mxCell>
        <mxCell id="OBLhhPcnFSXKWtFT23k--51" value="&lt;div&gt;ModelYear&lt;/div&gt;" style="ellipse;whiteSpace=wrap;html=1;" parent="OBLhhPcnFSXKWtFT23k--1" vertex="1">
          <mxGeometry x="-719" y="576.5" width="70" height="30" as="geometry" />
        </mxCell>
        <mxCell id="OBLhhPcnFSXKWtFT23k--52" value="ManufacturerName" style="ellipse;whiteSpace=wrap;html=1;" parent="OBLhhPcnFSXKWtFT23k--1" vertex="1">
          <mxGeometry x="-719" y="659.5" width="130" height="40" as="geometry" />
        </mxCell>
        <mxCell id="OBLhhPcnFSXKWtFT23k--53" value="InvoicePrice" style="ellipse;whiteSpace=wrap;html=1;" parent="OBLhhPcnFSXKWtFT23k--1" vertex="1">
          <mxGeometry x="-719" y="620.5" width="90" height="30" as="geometry" />
        </mxCell>
        <mxCell id="OBLhhPcnFSXKWtFT23k--54" value="Color" style="ellipse;whiteSpace=wrap;html=1;" parent="OBLhhPcnFSXKWtFT23k--1" vertex="1">
          <mxGeometry x="-719" y="708.5" width="50" height="30" as="geometry" />
        </mxCell>
        <mxCell id="OBLhhPcnFSXKWtFT23k--55" value="" style="endArrow=none;html=1;rounded=0;exitX=0;exitY=0.5;exitDx=0;exitDy=0;entryX=1;entryY=0.5;entryDx=0;entryDy=0;" parent="OBLhhPcnFSXKWtFT23k--1" source="OBLhhPcnFSXKWtFT23k--49" target="OBLhhPcnFSXKWtFT23k--48" edge="1">
          <mxGeometry relative="1" as="geometry">
            <mxPoint x="-859" y="821" as="sourcePoint" />
            <mxPoint x="-719" y="541" as="targetPoint" />
          </mxGeometry>
        </mxCell>
        <mxCell id="OBLhhPcnFSXKWtFT23k--56" value="" style="endArrow=none;html=1;rounded=0;exitX=0;exitY=0.5;exitDx=0;exitDy=0;entryX=1;entryY=0.5;entryDx=0;entryDy=0;" parent="OBLhhPcnFSXKWtFT23k--1" source="OBLhhPcnFSXKWtFT23k--50" target="OBLhhPcnFSXKWtFT23k--48" edge="1">
          <mxGeometry relative="1" as="geometry">
            <mxPoint x="-1109" y="811" as="sourcePoint" />
            <mxPoint x="-699" y="571" as="targetPoint" />
          </mxGeometry>
        </mxCell>
        <mxCell id="OBLhhPcnFSXKWtFT23k--57" value="" style="endArrow=none;html=1;rounded=0;exitX=0;exitY=0.5;exitDx=0;exitDy=0;entryX=1;entryY=0.5;entryDx=0;entryDy=0;" parent="OBLhhPcnFSXKWtFT23k--1" source="OBLhhPcnFSXKWtFT23k--51" target="OBLhhPcnFSXKWtFT23k--48" edge="1">
          <mxGeometry relative="1" as="geometry">
            <mxPoint x="-819" y="811" as="sourcePoint" />
            <mxPoint x="-659" y="601" as="targetPoint" />
          </mxGeometry>
        </mxCell>
        <mxCell id="OBLhhPcnFSXKWtFT23k--58" value="" style="endArrow=none;html=1;rounded=0;exitX=0;exitY=0.5;exitDx=0;exitDy=0;entryX=1;entryY=0.5;entryDx=0;entryDy=0;" parent="OBLhhPcnFSXKWtFT23k--1" source="OBLhhPcnFSXKWtFT23k--53" target="OBLhhPcnFSXKWtFT23k--48" edge="1">
          <mxGeometry relative="1" as="geometry">
            <mxPoint x="-969" y="801" as="sourcePoint" />
            <mxPoint x="-709" y="631" as="targetPoint" />
          </mxGeometry>
        </mxCell>
        <mxCell id="OBLhhPcnFSXKWtFT23k--59" value="" style="endArrow=none;html=1;rounded=0;exitX=0;exitY=0.5;exitDx=0;exitDy=0;entryX=1;entryY=0.5;entryDx=0;entryDy=0;" parent="OBLhhPcnFSXKWtFT23k--1" source="OBLhhPcnFSXKWtFT23k--52" target="OBLhhPcnFSXKWtFT23k--48" edge="1">
          <mxGeometry relative="1" as="geometry">
            <mxPoint x="-839" y="821" as="sourcePoint" />
            <mxPoint x="-699" y="641" as="targetPoint" />
          </mxGeometry>
        </mxCell>
        <mxCell id="OBLhhPcnFSXKWtFT23k--60" value="" style="endArrow=none;html=1;rounded=0;exitX=0;exitY=0.5;exitDx=0;exitDy=0;entryX=1;entryY=0.5;entryDx=0;entryDy=0;" parent="OBLhhPcnFSXKWtFT23k--1" source="OBLhhPcnFSXKWtFT23k--54" target="OBLhhPcnFSXKWtFT23k--48" edge="1">
          <mxGeometry relative="1" as="geometry">
            <mxPoint x="-689" y="601" as="sourcePoint" />
            <mxPoint x="-789" y="531" as="targetPoint" />
          </mxGeometry>
        </mxCell>
        <mxCell id="OBLhhPcnFSXKWtFT23k--61" value="d" style="ellipse;whiteSpace=wrap;html=1;rounded=0;" parent="OBLhhPcnFSXKWtFT23k--1" vertex="1">
          <mxGeometry x="-869" y="598.5" width="25" height="25" as="geometry" />
        </mxCell>
        <mxCell id="OBLhhPcnFSXKWtFT23k--62" value="" style="edgeStyle=none;rounded=0;orthogonalLoop=1;jettySize=auto;html=1;endArrow=none;endFill=0;entryX=1;entryY=0.5;entryDx=0;entryDy=0;exitX=0;exitY=0.5;exitDx=0;exitDy=0;" parent="OBLhhPcnFSXKWtFT23k--1" source="OBLhhPcnFSXKWtFT23k--63" target="OBLhhPcnFSXKWtFT23k--72" edge="1">
          <mxGeometry relative="1" as="geometry" />
        </mxCell>
        <mxCell id="OBLhhPcnFSXKWtFT23k--63" value="CAR" style="rounded=0;whiteSpace=wrap;html=1;" parent="OBLhhPcnFSXKWtFT23k--1" vertex="1">
          <mxGeometry x="-969" y="404" width="50" height="20" as="geometry" />
        </mxCell>
        <mxCell id="OBLhhPcnFSXKWtFT23k--64" value="" style="edgeStyle=none;rounded=0;orthogonalLoop=1;jettySize=auto;html=1;endArrow=none;endFill=0;exitX=0;exitY=0.5;exitDx=0;exitDy=0;entryX=1;entryY=0.5;entryDx=0;entryDy=0;" parent="OBLhhPcnFSXKWtFT23k--1" source="OBLhhPcnFSXKWtFT23k--65" target="OBLhhPcnFSXKWtFT23k--74" edge="1">
          <mxGeometry relative="1" as="geometry">
            <mxPoint x="-1049" y="487" as="sourcePoint" />
          </mxGeometry>
        </mxCell>
        <mxCell id="OBLhhPcnFSXKWtFT23k--65" value="CONVERTABLE" style="rounded=0;whiteSpace=wrap;html=1;" parent="OBLhhPcnFSXKWtFT23k--1" vertex="1">
          <mxGeometry x="-1009" y="471" width="90" height="30" as="geometry" />
        </mxCell>
        <mxCell id="OBLhhPcnFSXKWtFT23k--66" value="TRUCK" style="rounded=0;whiteSpace=wrap;html=1;" parent="OBLhhPcnFSXKWtFT23k--1" vertex="1">
          <mxGeometry x="-969" y="601" width="50" height="20" as="geometry" />
        </mxCell>
        <mxCell id="OBLhhPcnFSXKWtFT23k--67" value="" style="edgeStyle=none;rounded=0;orthogonalLoop=1;jettySize=auto;html=1;endArrow=none;endFill=0;" parent="OBLhhPcnFSXKWtFT23k--1" target="OBLhhPcnFSXKWtFT23k--83" edge="1">
          <mxGeometry relative="1" as="geometry">
            <mxPoint x="-1039" y="707" as="sourcePoint" />
          </mxGeometry>
        </mxCell>
        <mxCell id="OBLhhPcnFSXKWtFT23k--68" value="VAN/MINIVAN" style="rounded=0;whiteSpace=wrap;html=1;" parent="OBLhhPcnFSXKWtFT23k--1" vertex="1">
          <mxGeometry x="-999" y="696" width="80" height="20" as="geometry" />
        </mxCell>
        <mxCell id="OBLhhPcnFSXKWtFT23k--69" value="" style="edgeStyle=none;rounded=0;orthogonalLoop=1;jettySize=auto;html=1;endArrow=none;endFill=0;exitX=0;exitY=0.5;exitDx=0;exitDy=0;entryX=1;entryY=0.5;entryDx=0;entryDy=0;" parent="OBLhhPcnFSXKWtFT23k--1" source="OBLhhPcnFSXKWtFT23k--71" target="OBLhhPcnFSXKWtFT23k--84" edge="1">
          <mxGeometry relative="1" as="geometry" />
        </mxCell>
        <mxCell id="OBLhhPcnFSXKWtFT23k--70" value="" style="edgeStyle=none;rounded=0;orthogonalLoop=1;jettySize=auto;html=1;endArrow=none;endFill=0;exitX=0;exitY=0.5;exitDx=0;exitDy=0;entryX=1;entryY=0.5;entryDx=0;entryDy=0;" parent="OBLhhPcnFSXKWtFT23k--1" source="OBLhhPcnFSXKWtFT23k--71" target="OBLhhPcnFSXKWtFT23k--85" edge="1">
          <mxGeometry relative="1" as="geometry" />
        </mxCell>
        <mxCell id="OBLhhPcnFSXKWtFT23k--71" value="SUV" style="rounded=0;whiteSpace=wrap;html=1;" parent="OBLhhPcnFSXKWtFT23k--1" vertex="1">
          <mxGeometry x="-969" y="776" width="50" height="20" as="geometry" />
        </mxCell>
        <mxCell id="OBLhhPcnFSXKWtFT23k--72" value="NumberOfDoors" style="ellipse;whiteSpace=wrap;html=1;rounded=0;" parent="OBLhhPcnFSXKWtFT23k--1" vertex="1">
          <mxGeometry x="-1149" y="395" width="120" height="40" as="geometry" />
        </mxCell>
        <mxCell id="OBLhhPcnFSXKWtFT23k--73" value="RoofType" style="ellipse;whiteSpace=wrap;html=1;rounded=0;" parent="OBLhhPcnFSXKWtFT23k--1" vertex="1">
          <mxGeometry x="-1099" y="493" width="70" height="40" as="geometry" />
        </mxCell>
        <mxCell id="OBLhhPcnFSXKWtFT23k--74" value="BackSeatCount" style="ellipse;whiteSpace=wrap;html=1;rounded=0;" parent="OBLhhPcnFSXKWtFT23k--1" vertex="1">
          <mxGeometry x="-1129" y="444" width="100" height="40" as="geometry" />
        </mxCell>
        <mxCell id="OBLhhPcnFSXKWtFT23k--75" value="" style="endArrow=none;html=1;rounded=0;exitX=0;exitY=0.5;exitDx=0;exitDy=0;entryX=1;entryY=0.5;entryDx=0;entryDy=0;" parent="OBLhhPcnFSXKWtFT23k--1" source="OBLhhPcnFSXKWtFT23k--65" target="OBLhhPcnFSXKWtFT23k--73" edge="1">
          <mxGeometry relative="1" as="geometry">
            <mxPoint x="-1049" y="487" as="sourcePoint" />
            <mxPoint x="-659" y="872" as="targetPoint" />
          </mxGeometry>
        </mxCell>
        <mxCell id="OBLhhPcnFSXKWtFT23k--76" value="CargoCoverType" style="ellipse;whiteSpace=wrap;html=1;" parent="OBLhhPcnFSXKWtFT23k--1" vertex="1">
          <mxGeometry x="-1129" y="537" width="100" height="50" as="geometry" />
        </mxCell>
        <mxCell id="OBLhhPcnFSXKWtFT23k--77" value="CargoCapacity" style="ellipse;whiteSpace=wrap;html=1;" parent="OBLhhPcnFSXKWtFT23k--1" vertex="1">
          <mxGeometry x="-1119" y="591" width="90" height="40" as="geometry" />
        </mxCell>
        <mxCell id="OBLhhPcnFSXKWtFT23k--78" value="NumberOfRearAxels" style="ellipse;whiteSpace=wrap;html=1;" parent="OBLhhPcnFSXKWtFT23k--1" vertex="1">
          <mxGeometry x="-1149" y="640" width="120" height="40" as="geometry" />
        </mxCell>
        <mxCell id="OBLhhPcnFSXKWtFT23k--79" value="" style="endArrow=none;html=1;rounded=0;exitX=1;exitY=0.5;exitDx=0;exitDy=0;entryX=0;entryY=0.5;entryDx=0;entryDy=0;" parent="OBLhhPcnFSXKWtFT23k--1" source="OBLhhPcnFSXKWtFT23k--76" target="OBLhhPcnFSXKWtFT23k--66" edge="1">
          <mxGeometry relative="1" as="geometry">
            <mxPoint x="-1149" y="785.5" as="sourcePoint" />
            <mxPoint x="-989" y="785.5" as="targetPoint" />
          </mxGeometry>
        </mxCell>
        <mxCell id="OBLhhPcnFSXKWtFT23k--80" value="" style="endArrow=none;html=1;rounded=0;exitX=1;exitY=0.5;exitDx=0;exitDy=0;entryX=0;entryY=0.5;entryDx=0;entryDy=0;" parent="OBLhhPcnFSXKWtFT23k--1" source="OBLhhPcnFSXKWtFT23k--77" target="OBLhhPcnFSXKWtFT23k--66" edge="1">
          <mxGeometry relative="1" as="geometry">
            <mxPoint x="-1139" y="771" as="sourcePoint" />
            <mxPoint x="-979" y="771" as="targetPoint" />
          </mxGeometry>
        </mxCell>
        <mxCell id="OBLhhPcnFSXKWtFT23k--81" value="" style="endArrow=none;html=1;rounded=0;exitX=1;exitY=0.5;exitDx=0;exitDy=0;entryX=0;entryY=0.5;entryDx=0;entryDy=0;" parent="OBLhhPcnFSXKWtFT23k--1" source="OBLhhPcnFSXKWtFT23k--78" target="OBLhhPcnFSXKWtFT23k--66" edge="1">
          <mxGeometry relative="1" as="geometry">
            <mxPoint x="-1149" y="771" as="sourcePoint" />
            <mxPoint x="-989" y="771" as="targetPoint" />
          </mxGeometry>
        </mxCell>
        <mxCell id="OBLhhPcnFSXKWtFT23k--82" style="edgeStyle=none;rounded=0;orthogonalLoop=1;jettySize=auto;html=1;exitX=1;exitY=0.5;exitDx=0;exitDy=0;entryX=0;entryY=0.5;entryDx=0;entryDy=0;endArrow=none;endFill=0;" parent="OBLhhPcnFSXKWtFT23k--1" source="OBLhhPcnFSXKWtFT23k--83" target="OBLhhPcnFSXKWtFT23k--68" edge="1">
          <mxGeometry relative="1" as="geometry" />
        </mxCell>
        <mxCell id="OBLhhPcnFSXKWtFT23k--83" value="DriversSideBackDoor" style="ellipse;whiteSpace=wrap;html=1;rounded=0;" parent="OBLhhPcnFSXKWtFT23k--1" vertex="1">
          <mxGeometry x="-1169" y="684" width="140" height="50" as="geometry" />
        </mxCell>
        <mxCell id="OBLhhPcnFSXKWtFT23k--84" value="DrivetrainType" style="ellipse;whiteSpace=wrap;html=1;rounded=0;" parent="OBLhhPcnFSXKWtFT23k--1" vertex="1">
          <mxGeometry x="-1149" y="743" width="120" height="30" as="geometry" />
        </mxCell>
        <mxCell id="OBLhhPcnFSXKWtFT23k--85" value="NumberOfCupHolders" style="ellipse;whiteSpace=wrap;html=1;rounded=0;" parent="OBLhhPcnFSXKWtFT23k--1" vertex="1">
          <mxGeometry x="-1169" y="787" width="140" height="40" as="geometry" />
        </mxCell>
        <mxCell id="OBLhhPcnFSXKWtFT23k--86" value="" style="endArrow=none;html=1;rounded=0;exitX=1;exitY=0.5;exitDx=0;exitDy=0;entryX=0;entryY=0.5;entryDx=0;entryDy=0;startArrow=none;" parent="OBLhhPcnFSXKWtFT23k--1" source="OBLhhPcnFSXKWtFT23k--151" target="OBLhhPcnFSXKWtFT23k--61" edge="1">
          <mxGeometry relative="1" as="geometry">
            <mxPoint x="-839" y="751" as="sourcePoint" />
            <mxPoint x="-679" y="751" as="targetPoint" />
          </mxGeometry>
        </mxCell>
        <mxCell id="OBLhhPcnFSXKWtFT23k--87" value="" style="endArrow=none;html=1;rounded=0;exitX=1;exitY=0.5;exitDx=0;exitDy=0;entryX=0;entryY=0.5;entryDx=0;entryDy=0;startArrow=none;" parent="OBLhhPcnFSXKWtFT23k--1" source="OBLhhPcnFSXKWtFT23k--149" target="OBLhhPcnFSXKWtFT23k--61" edge="1">
          <mxGeometry relative="1" as="geometry">
            <mxPoint x="-799" y="591" as="sourcePoint" />
            <mxPoint x="-869" y="681" as="targetPoint" />
          </mxGeometry>
        </mxCell>
        <mxCell id="OBLhhPcnFSXKWtFT23k--88" value="" style="endArrow=none;html=1;rounded=0;exitX=1;exitY=0.5;exitDx=0;exitDy=0;entryX=0;entryY=0.5;entryDx=0;entryDy=0;startArrow=none;" parent="OBLhhPcnFSXKWtFT23k--1" source="OBLhhPcnFSXKWtFT23k--147" target="OBLhhPcnFSXKWtFT23k--61" edge="1">
          <mxGeometry relative="1" as="geometry">
            <mxPoint x="-799" y="591" as="sourcePoint" />
            <mxPoint x="-639" y="591" as="targetPoint" />
          </mxGeometry>
        </mxCell>
        <mxCell id="OBLhhPcnFSXKWtFT23k--89" value="" style="endArrow=none;html=1;rounded=0;exitX=1;exitY=0.5;exitDx=0;exitDy=0;entryX=1;entryY=0.5;entryDx=0;entryDy=0;startArrow=none;exitPerimeter=0;" parent="OBLhhPcnFSXKWtFT23k--1" source="OBLhhPcnFSXKWtFT23k--145" target="OBLhhPcnFSXKWtFT23k--63" edge="1">
          <mxGeometry relative="1" as="geometry">
            <mxPoint x="-799" y="591" as="sourcePoint" />
            <mxPoint x="-639" y="591" as="targetPoint" />
          </mxGeometry>
        </mxCell>
        <mxCell id="OBLhhPcnFSXKWtFT23k--90" value="" style="endArrow=none;html=1;rounded=0;exitX=1;exitY=0.5;exitDx=0;exitDy=0;entryX=0;entryY=0.5;entryDx=0;entryDy=0;startArrow=none;" parent="OBLhhPcnFSXKWtFT23k--1" source="OBLhhPcnFSXKWtFT23k--153" target="OBLhhPcnFSXKWtFT23k--61" edge="1">
          <mxGeometry relative="1" as="geometry">
            <mxPoint x="-789" y="811" as="sourcePoint" />
            <mxPoint x="-629" y="811" as="targetPoint" />
          </mxGeometry>
        </mxCell>
        <mxCell id="OBLhhPcnFSXKWtFT23k--91" value="CUSTOMER" style="rounded=0;whiteSpace=wrap;html=1;" parent="OBLhhPcnFSXKWtFT23k--1" vertex="1">
          <mxGeometry x="-409.5" y="542" width="99" height="30" as="geometry" />
        </mxCell>
        <mxCell id="OBLhhPcnFSXKWtFT23k--92" value="Address" style="ellipse;whiteSpace=wrap;html=1;" parent="OBLhhPcnFSXKWtFT23k--1" vertex="1">
          <mxGeometry x="-397" y="482" width="74" height="30" as="geometry" />
        </mxCell>
        <mxCell id="OBLhhPcnFSXKWtFT23k--93" value="PhoneNumber" style="ellipse;whiteSpace=wrap;html=1;" parent="OBLhhPcnFSXKWtFT23k--1" vertex="1">
          <mxGeometry x="-524" y="482" width="120" height="40" as="geometry" />
        </mxCell>
        <mxCell id="OBLhhPcnFSXKWtFT23k--94" value="Email" style="ellipse;whiteSpace=wrap;html=1;" parent="OBLhhPcnFSXKWtFT23k--1" vertex="1">
          <mxGeometry x="-310.5" y="482" width="61" height="30" as="geometry" />
        </mxCell>
        <mxCell id="OBLhhPcnFSXKWtFT23k--95" value="" style="endArrow=none;html=1;rounded=0;entryX=0.5;entryY=0;entryDx=0;entryDy=0;exitX=0.5;exitY=1;exitDx=0;exitDy=0;" parent="OBLhhPcnFSXKWtFT23k--1" source="OBLhhPcnFSXKWtFT23k--93" target="OBLhhPcnFSXKWtFT23k--91" edge="1">
          <mxGeometry relative="1" as="geometry">
            <mxPoint x="-594" y="522" as="sourcePoint" />
            <mxPoint x="-404" y="582" as="targetPoint" />
          </mxGeometry>
        </mxCell>
        <mxCell id="OBLhhPcnFSXKWtFT23k--96" value="" style="endArrow=none;html=1;rounded=0;exitX=0.5;exitY=0;exitDx=0;exitDy=0;entryX=0.5;entryY=1;entryDx=0;entryDy=0;" parent="OBLhhPcnFSXKWtFT23k--1" source="OBLhhPcnFSXKWtFT23k--91" target="OBLhhPcnFSXKWtFT23k--92" edge="1">
          <mxGeometry relative="1" as="geometry">
            <mxPoint x="-374" y="682" as="sourcePoint" />
            <mxPoint x="-214" y="682" as="targetPoint" />
          </mxGeometry>
        </mxCell>
        <mxCell id="OBLhhPcnFSXKWtFT23k--97" value="" style="endArrow=none;html=1;rounded=0;entryX=0.5;entryY=1;entryDx=0;entryDy=0;exitX=0.5;exitY=0;exitDx=0;exitDy=0;" parent="OBLhhPcnFSXKWtFT23k--1" source="OBLhhPcnFSXKWtFT23k--91" target="OBLhhPcnFSXKWtFT23k--94" edge="1">
          <mxGeometry relative="1" as="geometry">
            <mxPoint x="-254" y="512" as="sourcePoint" />
            <mxPoint x="-184" y="752" as="targetPoint" />
          </mxGeometry>
        </mxCell>
        <mxCell id="OBLhhPcnFSXKWtFT23k--98" value="d" style="ellipse;whiteSpace=wrap;html=1;aspect=fixed;" parent="OBLhhPcnFSXKWtFT23k--1" vertex="1">
          <mxGeometry x="-370" y="582" width="20" height="20" as="geometry" />
        </mxCell>
        <mxCell id="OBLhhPcnFSXKWtFT23k--99" value="Company" style="rounded=0;whiteSpace=wrap;html=1;" parent="OBLhhPcnFSXKWtFT23k--1" vertex="1">
          <mxGeometry x="-436" y="652" width="66" height="25" as="geometry" />
        </mxCell>
        <mxCell id="OBLhhPcnFSXKWtFT23k--100" value="Individual" style="rounded=0;whiteSpace=wrap;html=1;" parent="OBLhhPcnFSXKWtFT23k--1" vertex="1">
          <mxGeometry x="-350" y="652" width="64" height="25" as="geometry" />
        </mxCell>
        <mxCell id="OBLhhPcnFSXKWtFT23k--101" value="Name" style="ellipse;whiteSpace=wrap;html=1;" parent="OBLhhPcnFSXKWtFT23k--1" vertex="1">
          <mxGeometry x="-274" y="614.5" width="48.5" height="40" as="geometry" />
        </mxCell>
        <mxCell id="OBLhhPcnFSXKWtFT23k--102" value="&lt;u&gt;DriversLicenseNumber&lt;/u&gt;" style="ellipse;whiteSpace=wrap;html=1;" parent="OBLhhPcnFSXKWtFT23k--1" vertex="1">
          <mxGeometry x="-274" y="689.5" width="170" height="40" as="geometry" />
        </mxCell>
        <mxCell id="OBLhhPcnFSXKWtFT23k--103" value="FirstName" style="ellipse;whiteSpace=wrap;html=1;" parent="OBLhhPcnFSXKWtFT23k--1" vertex="1">
          <mxGeometry x="-172.5" y="594.5" width="68.5" height="40" as="geometry" />
        </mxCell>
        <mxCell id="OBLhhPcnFSXKWtFT23k--104" value="" style="endArrow=none;html=1;rounded=0;entryX=0;entryY=0.5;entryDx=0;entryDy=0;exitX=1;exitY=0.5;exitDx=0;exitDy=0;" parent="OBLhhPcnFSXKWtFT23k--1" source="OBLhhPcnFSXKWtFT23k--100" target="OBLhhPcnFSXKWtFT23k--101" edge="1">
          <mxGeometry relative="1" as="geometry">
            <mxPoint x="-430" y="852" as="sourcePoint" />
            <mxPoint x="-270" y="852" as="targetPoint" />
          </mxGeometry>
        </mxCell>
        <mxCell id="OBLhhPcnFSXKWtFT23k--105" value="" style="endArrow=none;html=1;rounded=0;entryX=0;entryY=0.5;entryDx=0;entryDy=0;exitX=1;exitY=0.5;exitDx=0;exitDy=0;" parent="OBLhhPcnFSXKWtFT23k--1" source="OBLhhPcnFSXKWtFT23k--100" target="OBLhhPcnFSXKWtFT23k--102" edge="1">
          <mxGeometry relative="1" as="geometry">
            <mxPoint x="-120" y="762" as="sourcePoint" />
            <mxPoint x="-120" y="912" as="targetPoint" />
          </mxGeometry>
        </mxCell>
        <mxCell id="OBLhhPcnFSXKWtFT23k--106" value="" style="endArrow=none;html=1;rounded=0;entryX=0;entryY=0.5;entryDx=0;entryDy=0;exitX=1;exitY=0.5;exitDx=0;exitDy=0;" parent="OBLhhPcnFSXKWtFT23k--1" source="OBLhhPcnFSXKWtFT23k--101" target="OBLhhPcnFSXKWtFT23k--103" edge="1">
          <mxGeometry relative="1" as="geometry">
            <mxPoint x="-384" y="854.5" as="sourcePoint" />
            <mxPoint x="-224" y="854.5" as="targetPoint" />
          </mxGeometry>
        </mxCell>
        <mxCell id="OBLhhPcnFSXKWtFT23k--107" value="LastName" style="ellipse;whiteSpace=wrap;html=1;" parent="OBLhhPcnFSXKWtFT23k--1" vertex="1">
          <mxGeometry x="-182.5" y="644.5" width="78.5" height="40" as="geometry" />
        </mxCell>
        <mxCell id="OBLhhPcnFSXKWtFT23k--108" value="" style="endArrow=none;html=1;rounded=0;entryX=0;entryY=0.5;entryDx=0;entryDy=0;exitX=1;exitY=0.5;exitDx=0;exitDy=0;" parent="OBLhhPcnFSXKWtFT23k--1" source="OBLhhPcnFSXKWtFT23k--101" target="OBLhhPcnFSXKWtFT23k--107" edge="1">
          <mxGeometry relative="1" as="geometry">
            <mxPoint x="-514" y="834.5" as="sourcePoint" />
            <mxPoint x="-354" y="834.5" as="targetPoint" />
          </mxGeometry>
        </mxCell>
        <mxCell id="OBLhhPcnFSXKWtFT23k--109" value="Title" style="ellipse;whiteSpace=wrap;html=1;" parent="OBLhhPcnFSXKWtFT23k--1" vertex="1">
          <mxGeometry x="-501" y="747" width="40" height="40" as="geometry" />
        </mxCell>
        <mxCell id="OBLhhPcnFSXKWtFT23k--110" value="" style="shape=link;html=1;rounded=0;strokeColor=default;strokeWidth=1;exitX=0.5;exitY=0;exitDx=0;exitDy=0;entryX=0.5;entryY=1;entryDx=0;entryDy=0;" parent="OBLhhPcnFSXKWtFT23k--1" source="OBLhhPcnFSXKWtFT23k--98" target="OBLhhPcnFSXKWtFT23k--91" edge="1">
          <mxGeometry relative="1" as="geometry">
            <mxPoint x="-304" y="852" as="sourcePoint" />
            <mxPoint x="-144" y="852" as="targetPoint" />
          </mxGeometry>
        </mxCell>
        <mxCell id="OBLhhPcnFSXKWtFT23k--111" value="" style="shape=requiredInterface;html=1;verticalLabelPosition=bottom;sketch=0;rotation=135;" parent="OBLhhPcnFSXKWtFT23k--1" vertex="1">
          <mxGeometry x="-380" y="612" width="10" height="20" as="geometry" />
        </mxCell>
        <mxCell id="OBLhhPcnFSXKWtFT23k--112" value="" style="shape=requiredInterface;html=1;verticalLabelPosition=bottom;sketch=0;rotation=45;" parent="OBLhhPcnFSXKWtFT23k--1" vertex="1">
          <mxGeometry x="-350" y="612" width="10" height="20" as="geometry" />
        </mxCell>
        <mxCell id="OBLhhPcnFSXKWtFT23k--113" value="" style="endArrow=none;html=1;rounded=0;strokeColor=default;strokeWidth=1;exitX=0.5;exitY=1;exitDx=0;exitDy=0;entryX=1;entryY=0.5;entryDx=0;entryDy=0;entryPerimeter=0;" parent="OBLhhPcnFSXKWtFT23k--1" source="OBLhhPcnFSXKWtFT23k--98" target="OBLhhPcnFSXKWtFT23k--111" edge="1">
          <mxGeometry relative="1" as="geometry">
            <mxPoint x="-664" y="592" as="sourcePoint" />
            <mxPoint x="-434" y="642" as="targetPoint" />
          </mxGeometry>
        </mxCell>
        <mxCell id="OBLhhPcnFSXKWtFT23k--114" value="" style="endArrow=none;html=1;rounded=0;strokeColor=default;strokeWidth=1;entryX=1;entryY=0.5;entryDx=0;entryDy=0;entryPerimeter=0;exitX=0.5;exitY=0;exitDx=0;exitDy=0;" parent="OBLhhPcnFSXKWtFT23k--1" source="OBLhhPcnFSXKWtFT23k--99" target="OBLhhPcnFSXKWtFT23k--111" edge="1">
          <mxGeometry relative="1" as="geometry">
            <mxPoint x="-644" y="642" as="sourcePoint" />
            <mxPoint x="-484" y="642" as="targetPoint" />
          </mxGeometry>
        </mxCell>
        <mxCell id="OBLhhPcnFSXKWtFT23k--115" value="" style="endArrow=none;html=1;rounded=0;strokeColor=default;strokeWidth=1;exitX=0.5;exitY=1;exitDx=0;exitDy=0;entryX=1;entryY=0.5;entryDx=0;entryDy=0;entryPerimeter=0;" parent="OBLhhPcnFSXKWtFT23k--1" source="OBLhhPcnFSXKWtFT23k--98" target="OBLhhPcnFSXKWtFT23k--112" edge="1">
          <mxGeometry relative="1" as="geometry">
            <mxPoint x="-314" y="642" as="sourcePoint" />
            <mxPoint x="-154" y="642" as="targetPoint" />
          </mxGeometry>
        </mxCell>
        <mxCell id="OBLhhPcnFSXKWtFT23k--116" value="" style="endArrow=none;html=1;rounded=0;strokeColor=default;strokeWidth=1;exitX=0.5;exitY=0;exitDx=0;exitDy=0;entryX=1;entryY=0.5;entryDx=0;entryDy=0;entryPerimeter=0;" parent="OBLhhPcnFSXKWtFT23k--1" source="OBLhhPcnFSXKWtFT23k--100" target="OBLhhPcnFSXKWtFT23k--112" edge="1">
          <mxGeometry relative="1" as="geometry">
            <mxPoint x="-284" y="652" as="sourcePoint" />
            <mxPoint x="-124" y="652" as="targetPoint" />
          </mxGeometry>
        </mxCell>
        <mxCell id="OBLhhPcnFSXKWtFT23k--117" value="&lt;u&gt;TaxIDNumber&lt;/u&gt;" style="ellipse;whiteSpace=wrap;html=1;fontStyle=0" parent="OBLhhPcnFSXKWtFT23k--1" vertex="1">
          <mxGeometry x="-574" y="592" width="120" height="40" as="geometry" />
        </mxCell>
        <mxCell id="OBLhhPcnFSXKWtFT23k--118" value="CompanyName" style="ellipse;whiteSpace=wrap;html=1;" parent="OBLhhPcnFSXKWtFT23k--1" vertex="1">
          <mxGeometry x="-574" y="644.5" width="120" height="35" as="geometry" />
        </mxCell>
        <mxCell id="OBLhhPcnFSXKWtFT23k--119" value="PrimaryContact" style="ellipse;whiteSpace=wrap;html=1;" parent="OBLhhPcnFSXKWtFT23k--1" vertex="1">
          <mxGeometry x="-560" y="697" width="106" height="30" as="geometry" />
        </mxCell>
        <mxCell id="OBLhhPcnFSXKWtFT23k--120" value="Name" style="ellipse;whiteSpace=wrap;html=1;" parent="OBLhhPcnFSXKWtFT23k--1" vertex="1">
          <mxGeometry x="-584" y="747" width="57" height="40" as="geometry" />
        </mxCell>
        <mxCell id="OBLhhPcnFSXKWtFT23k--121" value="" style="endArrow=none;html=1;rounded=0;exitX=0.5;exitY=0;exitDx=0;exitDy=0;entryX=0.5;entryY=1;entryDx=0;entryDy=0;" parent="OBLhhPcnFSXKWtFT23k--1" source="OBLhhPcnFSXKWtFT23k--120" target="OBLhhPcnFSXKWtFT23k--119" edge="1">
          <mxGeometry relative="1" as="geometry">
            <mxPoint x="-327" y="802" as="sourcePoint" />
            <mxPoint x="-167" y="802" as="targetPoint" />
          </mxGeometry>
        </mxCell>
        <mxCell id="OBLhhPcnFSXKWtFT23k--122" value="" style="endArrow=none;html=1;rounded=0;exitX=0.5;exitY=0;exitDx=0;exitDy=0;entryX=0.5;entryY=1;entryDx=0;entryDy=0;" parent="OBLhhPcnFSXKWtFT23k--1" source="OBLhhPcnFSXKWtFT23k--109" target="OBLhhPcnFSXKWtFT23k--119" edge="1">
          <mxGeometry relative="1" as="geometry">
            <mxPoint x="-431" y="727" as="sourcePoint" />
            <mxPoint x="-97" y="772" as="targetPoint" />
          </mxGeometry>
        </mxCell>
        <mxCell id="OBLhhPcnFSXKWtFT23k--123" value="" style="endArrow=none;html=1;rounded=0;exitX=1;exitY=0.5;exitDx=0;exitDy=0;entryX=0;entryY=0.5;entryDx=0;entryDy=0;" parent="OBLhhPcnFSXKWtFT23k--1" source="OBLhhPcnFSXKWtFT23k--119" target="OBLhhPcnFSXKWtFT23k--99" edge="1">
          <mxGeometry relative="1" as="geometry">
            <mxPoint x="-340" y="897" as="sourcePoint" />
            <mxPoint x="-520" y="777" as="targetPoint" />
          </mxGeometry>
        </mxCell>
        <mxCell id="OBLhhPcnFSXKWtFT23k--124" value="" style="endArrow=none;html=1;rounded=0;exitX=1;exitY=0.5;exitDx=0;exitDy=0;entryX=0;entryY=0.5;entryDx=0;entryDy=0;" parent="OBLhhPcnFSXKWtFT23k--1" source="OBLhhPcnFSXKWtFT23k--118" target="OBLhhPcnFSXKWtFT23k--99" edge="1">
          <mxGeometry relative="1" as="geometry">
            <mxPoint x="-360" y="887" as="sourcePoint" />
            <mxPoint x="-520" y="747" as="targetPoint" />
          </mxGeometry>
        </mxCell>
        <mxCell id="OBLhhPcnFSXKWtFT23k--125" value="" style="endArrow=none;html=1;rounded=0;exitX=1;exitY=0.5;exitDx=0;exitDy=0;entryX=0;entryY=0.5;entryDx=0;entryDy=0;" parent="OBLhhPcnFSXKWtFT23k--1" source="OBLhhPcnFSXKWtFT23k--117" target="OBLhhPcnFSXKWtFT23k--99" edge="1">
          <mxGeometry relative="1" as="geometry">
            <mxPoint x="-390" y="857" as="sourcePoint" />
            <mxPoint x="-520" y="717" as="targetPoint" />
          </mxGeometry>
        </mxCell>
        <mxCell id="OBLhhPcnFSXKWtFT23k--126" value="" style="edgeStyle=none;rounded=0;orthogonalLoop=1;jettySize=auto;html=1;endArrow=none;endFill=0;strokeWidth=1;entryX=0;entryY=0.5;entryDx=0;entryDy=0;exitX=1;exitY=0.5;exitDx=0;exitDy=0;" parent="OBLhhPcnFSXKWtFT23k--1" source="OBLhhPcnFSXKWtFT23k--144" target="OBLhhPcnFSXKWtFT23k--141" edge="1">
          <mxGeometry relative="1" as="geometry">
            <mxPoint x="-720.7450779457686" y="298.76358611258524" as="sourcePoint" />
            <mxPoint x="-691.25" y="303.27486910994753" as="targetPoint" />
          </mxGeometry>
        </mxCell>
        <mxCell id="OBLhhPcnFSXKWtFT23k--127" style="edgeStyle=none;rounded=0;orthogonalLoop=1;jettySize=auto;html=1;exitX=1;exitY=0.5;exitDx=0;exitDy=0;entryX=0;entryY=0.5;entryDx=0;entryDy=0;endArrow=none;endFill=0;strokeWidth=1;fontSize=1;" parent="OBLhhPcnFSXKWtFT23k--1" source="OBLhhPcnFSXKWtFT23k--128" target="OBLhhPcnFSXKWtFT23k--141" edge="1">
          <mxGeometry relative="1" as="geometry">
            <mxPoint x="-691.25" y="310.5" as="targetPoint" />
          </mxGeometry>
        </mxCell>
        <mxCell id="OBLhhPcnFSXKWtFT23k--128" value="SalePrice" style="ellipse;whiteSpace=wrap;html=1;rounded=0;" parent="OBLhhPcnFSXKWtFT23k--1" vertex="1">
          <mxGeometry x="-790" y="313.5" width="75.5" height="31" as="geometry" />
        </mxCell>
        <mxCell id="OBLhhPcnFSXKWtFT23k--129" style="edgeStyle=none;rounded=0;orthogonalLoop=1;jettySize=auto;html=1;exitX=1;exitY=0.5;exitDx=0;exitDy=0;entryX=0;entryY=0.5;entryDx=0;entryDy=0;fontSize=12;endArrow=none;endFill=0;strokeWidth=1;" parent="OBLhhPcnFSXKWtFT23k--1" source="OBLhhPcnFSXKWtFT23k--143" target="OBLhhPcnFSXKWtFT23k--140" edge="1">
          <mxGeometry relative="1" as="geometry">
            <mxPoint x="-320.0000000000109" y="275" as="sourcePoint" />
          </mxGeometry>
        </mxCell>
        <mxCell id="OBLhhPcnFSXKWtFT23k--130" style="edgeStyle=none;rounded=0;orthogonalLoop=1;jettySize=auto;html=1;exitX=1;exitY=0.5;exitDx=0;exitDy=0;entryX=0;entryY=0.5;entryDx=0;entryDy=0;fontSize=12;endArrow=none;endFill=0;strokeWidth=1;" parent="OBLhhPcnFSXKWtFT23k--1" source="OBLhhPcnFSXKWtFT23k--131" target="OBLhhPcnFSXKWtFT23k--140" edge="1">
          <mxGeometry relative="1" as="geometry" />
        </mxCell>
        <mxCell id="OBLhhPcnFSXKWtFT23k--131" value="CompletionDate" style="ellipse;whiteSpace=wrap;html=1;flipH=1;flipV=1;" parent="OBLhhPcnFSXKWtFT23k--1" vertex="1">
          <mxGeometry x="-316.5" y="331.48" width="111.5" height="32" as="geometry" />
        </mxCell>
        <mxCell id="OBLhhPcnFSXKWtFT23k--132" style="edgeStyle=none;rounded=0;orthogonalLoop=1;jettySize=auto;html=1;exitX=1;exitY=0.5;exitDx=0;exitDy=0;fontSize=12;endArrow=none;endFill=0;strokeWidth=1;entryX=0;entryY=0.5;entryDx=0;entryDy=0;" parent="OBLhhPcnFSXKWtFT23k--1" source="OBLhhPcnFSXKWtFT23k--133" target="OBLhhPcnFSXKWtFT23k--140" edge="1">
          <mxGeometry relative="1" as="geometry">
            <mxPoint x="-267" y="365" as="targetPoint" />
          </mxGeometry>
        </mxCell>
        <mxCell id="OBLhhPcnFSXKWtFT23k--133" value="OdometerReading" style="ellipse;whiteSpace=wrap;html=1;flipH=1;flipV=1;" parent="OBLhhPcnFSXKWtFT23k--1" vertex="1">
          <mxGeometry x="-325" y="372.48" width="120" height="30" as="geometry" />
        </mxCell>
        <mxCell id="OBLhhPcnFSXKWtFT23k--134" style="edgeStyle=none;rounded=0;orthogonalLoop=1;jettySize=auto;html=1;exitX=1;exitY=0.5;exitDx=0;exitDy=0;entryX=0;entryY=0.5;entryDx=0;entryDy=0;fontSize=12;endArrow=none;endFill=0;strokeWidth=1;" parent="OBLhhPcnFSXKWtFT23k--1" source="OBLhhPcnFSXKWtFT23k--135" target="OBLhhPcnFSXKWtFT23k--140" edge="1">
          <mxGeometry relative="1" as="geometry" />
        </mxCell>
        <mxCell id="OBLhhPcnFSXKWtFT23k--135" value="LaborCosts" style="ellipse;whiteSpace=wrap;html=1;flipH=1;flipV=1;" parent="OBLhhPcnFSXKWtFT23k--1" vertex="1">
          <mxGeometry x="-325" y="441.48" width="120" height="30" as="geometry" />
        </mxCell>
        <mxCell id="OBLhhPcnFSXKWtFT23k--136" style="edgeStyle=none;rounded=0;orthogonalLoop=1;jettySize=auto;html=1;exitX=1;exitY=0.5;exitDx=0;exitDy=0;fontSize=12;endArrow=none;endFill=0;strokeWidth=1;entryX=0;entryY=0.5;entryDx=0;entryDy=0;" parent="OBLhhPcnFSXKWtFT23k--1" source="OBLhhPcnFSXKWtFT23k--137" target="OBLhhPcnFSXKWtFT23k--140" edge="1">
          <mxGeometry relative="1" as="geometry">
            <mxPoint x="-317" y="365" as="targetPoint" />
          </mxGeometry>
        </mxCell>
        <mxCell id="OBLhhPcnFSXKWtFT23k--137" value="RepairDescription" style="ellipse;whiteSpace=wrap;html=1;flipH=1;flipV=1;" parent="OBLhhPcnFSXKWtFT23k--1" vertex="1">
          <mxGeometry x="-325" y="407.48" width="120" height="30" as="geometry" />
        </mxCell>
        <mxCell id="OBLhhPcnFSXKWtFT23k--138" style="edgeStyle=none;rounded=0;orthogonalLoop=1;jettySize=auto;html=1;endArrow=none;endFill=0;strokeWidth=1;shape=link;" parent="OBLhhPcnFSXKWtFT23k--1" source="OBLhhPcnFSXKWtFT23k--140" target="OBLhhPcnFSXKWtFT23k--46" edge="1">
          <mxGeometry relative="1" as="geometry">
            <mxPoint x="-175" y="342.7499999999998" as="sourcePoint" />
          </mxGeometry>
        </mxCell>
        <mxCell id="OBLhhPcnFSXKWtFT23k--139" value="" style="edgeStyle=none;rounded=0;orthogonalLoop=1;jettySize=auto;html=1;fontSize=1;endArrow=none;endFill=0;strokeWidth=1;exitX=1;exitY=0.5;exitDx=0;exitDy=0;shape=link;" parent="OBLhhPcnFSXKWtFT23k--1" source="OBLhhPcnFSXKWtFT23k--141" target="OBLhhPcnFSXKWtFT23k--43" edge="1">
          <mxGeometry relative="1" as="geometry">
            <mxPoint x="-622.25" y="310.32835820895525" as="sourcePoint" />
          </mxGeometry>
        </mxCell>
        <mxCell id="OBLhhPcnFSXKWtFT23k--140" value="Repair" style="shape=ext;margin=3;double=1;whiteSpace=wrap;html=1;align=center;fontSize=12;" parent="OBLhhPcnFSXKWtFT23k--1" vertex="1">
          <mxGeometry x="-167.5" y="372.48" width="100" height="40" as="geometry" />
        </mxCell>
        <mxCell id="pJwU6H4gatPhMs0IqNJe-3" style="edgeStyle=none;rounded=0;orthogonalLoop=1;jettySize=auto;html=1;exitX=0.5;exitY=1;exitDx=0;exitDy=0;entryX=0.5;entryY=0;entryDx=0;entryDy=0;fontSize=12;endArrow=none;endFill=0;strokeWidth=1;" parent="OBLhhPcnFSXKWtFT23k--1" source="OBLhhPcnFSXKWtFT23k--141" target="pJwU6H4gatPhMs0IqNJe-2" edge="1">
          <mxGeometry relative="1" as="geometry" />
        </mxCell>
        <mxCell id="pJwU6H4gatPhMs0IqNJe-5" style="edgeStyle=none;rounded=0;orthogonalLoop=1;jettySize=auto;html=1;exitX=0.5;exitY=1;exitDx=0;exitDy=0;entryX=0.5;entryY=0;entryDx=0;entryDy=0;fontSize=12;endArrow=none;endFill=0;strokeWidth=1;" parent="OBLhhPcnFSXKWtFT23k--1" source="OBLhhPcnFSXKWtFT23k--141" target="pJwU6H4gatPhMs0IqNJe-1" edge="1">
          <mxGeometry relative="1" as="geometry" />
        </mxCell>
        <mxCell id="OBLhhPcnFSXKWtFT23k--141" value="&lt;div&gt;Sale&lt;/div&gt;" style="shape=ext;margin=3;double=1;whiteSpace=wrap;html=1;align=center;fontSize=12;" parent="OBLhhPcnFSXKWtFT23k--1" vertex="1">
          <mxGeometry x="-680" y="289.74" width="65.5" height="40" as="geometry" />
        </mxCell>
        <mxCell id="OBLhhPcnFSXKWtFT23k--142" value="&lt;span style=&quot;border-bottom: 1px dotted&quot;&gt;DateAdded&lt;/span&gt;" style="ellipse;whiteSpace=wrap;html=1;align=center;fontSize=12;" parent="OBLhhPcnFSXKWtFT23k--1" vertex="1">
          <mxGeometry x="-1069" y="249.74" width="100" height="40" as="geometry" />
        </mxCell>
        <mxCell id="OBLhhPcnFSXKWtFT23k--143" value="&lt;span style=&quot;border-bottom: 1px dotted&quot;&gt;StartDate&lt;/span&gt;" style="ellipse;whiteSpace=wrap;html=1;align=center;fontSize=12;" parent="OBLhhPcnFSXKWtFT23k--1" vertex="1">
          <mxGeometry x="-278.5" y="289.74" width="69" height="30.26" as="geometry" />
        </mxCell>
        <mxCell id="OBLhhPcnFSXKWtFT23k--144" value="&lt;span style=&quot;border-bottom: 1px dotted&quot;&gt;DateSold&lt;/span&gt;" style="ellipse;whiteSpace=wrap;html=1;align=center;fontSize=12;" parent="OBLhhPcnFSXKWtFT23k--1" vertex="1">
          <mxGeometry x="-790" y="273.5" width="69" height="40" as="geometry" />
        </mxCell>
        <mxCell id="OBLhhPcnFSXKWtFT23k--145" value="" style="shape=requiredInterface;html=1;verticalLabelPosition=bottom;sketch=0;fontSize=12;rotation=-105;" parent="OBLhhPcnFSXKWtFT23k--1" vertex="1">
          <mxGeometry x="-895.5500000000001" y="471" width="10" height="16" as="geometry" />
        </mxCell>
        <mxCell id="OBLhhPcnFSXKWtFT23k--146" value="" style="endArrow=none;html=1;rounded=0;exitX=0;exitY=0.5;exitDx=0;exitDy=0;entryX=1;entryY=0.5;entryDx=0;entryDy=0;" parent="OBLhhPcnFSXKWtFT23k--1" source="OBLhhPcnFSXKWtFT23k--61" target="OBLhhPcnFSXKWtFT23k--145" edge="1">
          <mxGeometry relative="1" as="geometry">
            <mxPoint x="-798.9999999999832" y="556" as="sourcePoint" />
            <mxPoint x="-849" y="358.9999999999998" as="targetPoint" />
          </mxGeometry>
        </mxCell>
        <mxCell id="OBLhhPcnFSXKWtFT23k--147" value="" style="shape=requiredInterface;html=1;verticalLabelPosition=bottom;sketch=0;fontSize=12;rotation=-130;" parent="OBLhhPcnFSXKWtFT23k--1" vertex="1">
          <mxGeometry x="-913.06" y="519.5699999999999" width="10" height="12" as="geometry" />
        </mxCell>
        <mxCell id="OBLhhPcnFSXKWtFT23k--148" value="" style="endArrow=none;html=1;rounded=0;exitX=1;exitY=0.5;exitDx=0;exitDy=0;entryX=1;entryY=0.5;entryDx=0;entryDy=0;entryPerimeter=0;" parent="OBLhhPcnFSXKWtFT23k--1" source="OBLhhPcnFSXKWtFT23k--65" target="OBLhhPcnFSXKWtFT23k--147" edge="1">
          <mxGeometry relative="1" as="geometry">
            <mxPoint x="-919.0000000000001" y="486" as="sourcePoint" />
            <mxPoint x="-869.0000000000045" y="611" as="targetPoint" />
          </mxGeometry>
        </mxCell>
        <mxCell id="OBLhhPcnFSXKWtFT23k--149" value="" style="shape=requiredInterface;html=1;verticalLabelPosition=bottom;sketch=0;fontSize=12;rotation=-180;" parent="OBLhhPcnFSXKWtFT23k--1" vertex="1">
          <mxGeometry x="-899.7" y="605.47" width="10" height="13.01" as="geometry" />
        </mxCell>
        <mxCell id="OBLhhPcnFSXKWtFT23k--150" value="" style="endArrow=none;html=1;rounded=0;exitX=1;exitY=0.5;exitDx=0;exitDy=0;entryX=1;entryY=0.5;entryDx=0;entryDy=0;entryPerimeter=0;" parent="OBLhhPcnFSXKWtFT23k--1" source="OBLhhPcnFSXKWtFT23k--66" target="OBLhhPcnFSXKWtFT23k--149" edge="1">
          <mxGeometry relative="1" as="geometry">
            <mxPoint x="-919.0000000000001" y="611" as="sourcePoint" />
            <mxPoint x="-869.0000000000045" y="611" as="targetPoint" />
          </mxGeometry>
        </mxCell>
        <mxCell id="OBLhhPcnFSXKWtFT23k--151" value="" style="shape=requiredInterface;html=1;verticalLabelPosition=bottom;sketch=0;fontSize=12;rotation=120;" parent="OBLhhPcnFSXKWtFT23k--1" vertex="1">
          <mxGeometry x="-904.07" y="655.18" width="10" height="8.5" as="geometry" />
        </mxCell>
        <mxCell id="OBLhhPcnFSXKWtFT23k--152" value="" style="endArrow=none;html=1;rounded=0;exitX=1;exitY=0.5;exitDx=0;exitDy=0;entryX=1;entryY=0.5;entryDx=0;entryDy=0;entryPerimeter=0;" parent="OBLhhPcnFSXKWtFT23k--1" source="OBLhhPcnFSXKWtFT23k--68" target="OBLhhPcnFSXKWtFT23k--151" edge="1">
          <mxGeometry relative="1" as="geometry">
            <mxPoint x="-919.0000000000001" y="706" as="sourcePoint" />
            <mxPoint x="-869.0000000000045" y="611" as="targetPoint" />
          </mxGeometry>
        </mxCell>
        <mxCell id="OBLhhPcnFSXKWtFT23k--153" value="" style="shape=requiredInterface;html=1;verticalLabelPosition=bottom;sketch=0;fontSize=12;rotation=105;" parent="OBLhhPcnFSXKWtFT23k--1" vertex="1">
          <mxGeometry x="-905.55" y="717.76" width="10" height="8.5" as="geometry" />
        </mxCell>
        <mxCell id="OBLhhPcnFSXKWtFT23k--154" value="" style="endArrow=none;html=1;rounded=0;exitX=1;exitY=0.5;exitDx=0;exitDy=0;entryX=1;entryY=0.5;entryDx=0;entryDy=0;entryPerimeter=0;" parent="OBLhhPcnFSXKWtFT23k--1" source="OBLhhPcnFSXKWtFT23k--71" target="OBLhhPcnFSXKWtFT23k--153" edge="1">
          <mxGeometry relative="1" as="geometry">
            <mxPoint x="-919.0000000000001" y="786" as="sourcePoint" />
            <mxPoint x="-869.0000000000045" y="611" as="targetPoint" />
          </mxGeometry>
        </mxCell>
        <mxCell id="EvW4grgbc_aKSZ-Zlbsq-4" style="edgeStyle=none;rounded=0;orthogonalLoop=1;jettySize=auto;html=1;exitX=0.5;exitY=1;exitDx=0;exitDy=0;fontSize=12;endArrow=none;endFill=0;strokeWidth=1;" parent="OBLhhPcnFSXKWtFT23k--1" source="pJwU6H4gatPhMs0IqNJe-1" target="OBLhhPcnFSXKWtFT23k--91" edge="1">
          <mxGeometry relative="1" as="geometry">
            <Array as="points">
              <mxPoint x="-610" y="530" />
            </Array>
          </mxGeometry>
        </mxCell>
        <mxCell id="pJwU6H4gatPhMs0IqNJe-1" value="Sold To" style="rhombus;whiteSpace=wrap;html=1;fontSize=12;" parent="OBLhhPcnFSXKWtFT23k--1" vertex="1">
          <mxGeometry x="-654" y="358" width="80" height="80" as="geometry" />
        </mxCell>
        <mxCell id="pJwU6H4gatPhMs0IqNJe-4" style="edgeStyle=none;rounded=0;orthogonalLoop=1;jettySize=auto;html=1;exitX=0.5;exitY=1;exitDx=0;exitDy=0;fontSize=12;endArrow=none;endFill=0;strokeWidth=1;" parent="OBLhhPcnFSXKWtFT23k--1" source="pJwU6H4gatPhMs0IqNJe-2" target="OBLhhPcnFSXKWtFT23k--48" edge="1">
          <mxGeometry relative="1" as="geometry" />
        </mxCell>
        <mxCell id="pJwU6H4gatPhMs0IqNJe-2" value="&lt;div&gt;Inventory&lt;/div&gt;&lt;div&gt;Sold&lt;br&gt;&lt;/div&gt;" style="rhombus;whiteSpace=wrap;html=1;fontSize=12;" parent="OBLhhPcnFSXKWtFT23k--1" vertex="1">
          <mxGeometry x="-751.5" y="358" width="80" height="80" as="geometry" />
        </mxCell>
        <mxCell id="pJwU6H4gatPhMs0IqNJe-12" style="edgeStyle=none;rounded=0;orthogonalLoop=1;jettySize=auto;html=1;entryX=0.5;entryY=1;entryDx=0;entryDy=0;fontSize=12;endArrow=none;endFill=0;strokeWidth=1;" parent="OBLhhPcnFSXKWtFT23k--1" source="pJwU6H4gatPhMs0IqNJe-7" target="OBLhhPcnFSXKWtFT23k--48" edge="1">
          <mxGeometry relative="1" as="geometry">
            <Array as="points">
              <mxPoint x="-10" y="566" />
              <mxPoint x="-10" y="810" />
              <mxPoint x="-711" y="800" />
            </Array>
          </mxGeometry>
        </mxCell>
        <mxCell id="pJwU6H4gatPhMs0IqNJe-7" value="Issued For Vehicle" style="rhombus;whiteSpace=wrap;html=1;fontSize=12;" parent="OBLhhPcnFSXKWtFT23k--1" vertex="1">
          <mxGeometry x="-90" y="496.5" width="80" height="80" as="geometry" />
        </mxCell>
        <mxCell id="pJwU6H4gatPhMs0IqNJe-8" value="Issued For Customer" style="rhombus;whiteSpace=wrap;html=1;fontSize=12;" parent="OBLhhPcnFSXKWtFT23k--1" vertex="1">
          <mxGeometry x="-249.5" y="496.5" width="80" height="80" as="geometry" />
        </mxCell>
        <mxCell id="N2-2gPsrDPR2S0cQjh6f-0" value="1" style="edgeStyle=none;rounded=0;orthogonalLoop=1;jettySize=auto;html=1;fontSize=12;endArrow=none;endFill=0;strokeWidth=1;" parent="OBLhhPcnFSXKWtFT23k--1" edge="1">
          <mxGeometry x="0.8327" y="-2" relative="1" as="geometry">
            <mxPoint as="offset" />
            <mxPoint x="-520" y="240" as="sourcePoint" />
            <mxPoint x="-150" y="300" as="targetPoint" />
          </mxGeometry>
        </mxCell>
        <mxCell id="N2-2gPsrDPR2S0cQjh6f-1" value="1" style="edgeStyle=none;rounded=0;orthogonalLoop=1;jettySize=auto;html=1;fontSize=12;endArrow=none;endFill=0;strokeWidth=1;entryX=0.5;entryY=0;entryDx=0;entryDy=0;" parent="OBLhhPcnFSXKWtFT23k--1" target="OBLhhPcnFSXKWtFT23k--43" edge="1">
          <mxGeometry x="0.8327" y="-2" relative="1" as="geometry">
            <mxPoint as="offset" />
            <mxPoint x="-556" y="245" as="sourcePoint" />
            <mxPoint x="-864.7524752475247" y="284.9875247524752" as="targetPoint" />
          </mxGeometry>
        </mxCell>
        <mxCell id="-MXsMZ3HFVtyenDkPSlB-0" value="N" style="edgeStyle=none;rounded=0;orthogonalLoop=1;jettySize=auto;html=1;exitX=1;exitY=0;exitDx=0;exitDy=0;fontSize=12;endArrow=none;endFill=0;strokeWidth=1;entryX=0.25;entryY=1;entryDx=0;entryDy=0;" edge="1" parent="OBLhhPcnFSXKWtFT23k--1" source="pJwU6H4gatPhMs0IqNJe-8" target="OBLhhPcnFSXKWtFT23k--140">
          <mxGeometry x="-0.8645" y="2" relative="1" as="geometry">
            <mxPoint as="offset" />
            <mxPoint x="-100" y="480" as="sourcePoint" />
            <mxPoint x="14.811398866961326" y="791.26" as="targetPoint" />
          </mxGeometry>
        </mxCell>
        <mxCell id="-MXsMZ3HFVtyenDkPSlB-1" value="N" style="edgeStyle=none;rounded=0;orthogonalLoop=1;jettySize=auto;html=1;fontSize=12;endArrow=none;endFill=0;strokeWidth=1;" edge="1" parent="OBLhhPcnFSXKWtFT23k--1" source="pJwU6H4gatPhMs0IqNJe-7" target="OBLhhPcnFSXKWtFT23k--140">
          <mxGeometry x="-0.8645" y="2" relative="1" as="geometry">
            <mxPoint as="offset" />
            <mxPoint x="-179.5" y="526.5" as="sourcePoint" />
            <mxPoint x="-132.5" y="422.48" as="targetPoint" />
          </mxGeometry>
        </mxCell>
        <mxCell id="-MXsMZ3HFVtyenDkPSlB-2" value="1" style="edgeStyle=none;rounded=0;orthogonalLoop=1;jettySize=auto;html=1;fontSize=12;endArrow=none;endFill=0;strokeWidth=1;exitX=1;exitY=0.5;exitDx=0;exitDy=0;entryX=0;entryY=0.5;entryDx=0;entryDy=0;" edge="1" parent="OBLhhPcnFSXKWtFT23k--1" source="OBLhhPcnFSXKWtFT23k--91" target="pJwU6H4gatPhMs0IqNJe-8">
          <mxGeometry x="0.8327" y="-2" relative="1" as="geometry">
            <mxPoint as="offset" />
            <mxPoint x="-310" y="599.5999755859375" as="sourcePoint" />
            <mxPoint x="-874.7524752475247" y="274.9875247524752" as="targetPoint" />
          </mxGeometry>
        </mxCell>
      </root>
    </mxGraphModel>
  </diagram>
</mxfile>
